<svg xmlns="http://www.w3.org/2000/svg" width="334" height="186.944" viewBox="0 0 334 186.944"><g transform="translate(0.015)"><g transform="translate(-0.015)"><path d="M346.641,164.221q-5.995,5.166-12.451,9.718a89.937,89.937,0,0,1-12.578,7.732,46.371,46.371,0,0,1-10.932,3.717,8.171,8.171,0,0,1-5.229-.346,5.162,5.162,0,0,1-3.164-3.723,9.709,9.709,0,0,1,1.081-7.586,7.945,7.945,0,0,1,2.521-2.466,3.377,3.377,0,0,1,2.964-.4,2.691,2.691,0,0,1,1.925,3.316,7.035,7.035,0,0,1-.358,1.1c-.48,1.215-.486,1.215-1.47.292s-1.087-.972-2.156.03a4.873,4.873,0,0,0-.978,5.9,2.429,2.429,0,0,0,2.059,1.16,7.811,7.811,0,0,0,5.831-2.053,27.282,27.282,0,0,0,7.112-9.3c.723-1.646,1.008-3.365-.3-4.956a4.422,4.422,0,0,0-4.428-1.573,15.285,15.285,0,0,0-7.051,3.5,3.571,3.571,0,0,1-1.531.692.887.887,0,0,1-1.148-.978,3.189,3.189,0,0,1,.856-2.1c2.527-2.381,5.248-4.452,8.788-5.011,3.972-.607,7.975,1.373,8.965,5.326a9.578,9.578,0,0,1-1.634,8.211c-.644.887-1.354,1.725-1.962,2.691,1.087-.662,2.18-1.312,3.261-1.98,4.464-2.788,8.794-5.764,12.967-8.971,1.919-1.476,3.76-3.037,5.636-4.573a1.136,1.136,0,0,1,.674-.1c2.387.03,4.78,0,7.167,0a2.137,2.137,0,0,1,.759.091c.2.079.383.188.237.456-.182.115-.334.255-.267.5.553,1.986.425,4.057.723,6.074.285,1.9.486,3.814.717,5.721.079.607.146,1.215.219,1.822a17.564,17.564,0,0,1-2.77.073h-1.318a.612.612,0,0,0-.662.777c.049.407.121.82.152,1.215a1.014,1.014,0,0,1-.207.875,20.045,20.045,0,0,1-.553-3.547,23.459,23.459,0,0,1-.377-3.747c-.2-.449.067-.954-.158-1.4h0c-.207-.5.073-1.051-.152-1.555a.535.535,0,0,1,0-.14c-.206-.559.067-1.166-.158-1.719a.607.607,0,0,1,0-.146,23.516,23.516,0,0,0-.213-2.344C346.962,164.294,346.993,164.038,346.641,164.221Z" transform="translate(-118.558 -63.127)" fill="#fff"/><path d="M277.665,271.907v.765c-.2.346.043.747-.152,1.093a29.719,29.719,0,0,1-2.666,9.268,14.692,14.692,0,0,1-6.177,6.286,29.76,29.76,0,0,1-11.084,3.389,47.587,47.587,0,0,1-8.57.243,44.519,44.519,0,0,1-14.759-3.347,24.775,24.775,0,0,1-3.741-2.162c-3.286-2.089-6.553-4.2-9.645-6.572a15.351,15.351,0,0,1-2.921-2.618c.231-.607.783-.516,1.215-.528,1.391-.036,2.788-.049,4.179,0a1.822,1.822,0,0,1,.978.431,49.894,49.894,0,0,0,12.973,6.5,51.552,51.552,0,0,0,9.772,2.029,37.2,37.2,0,0,0,6.256.3A21.543,21.543,0,0,0,263.7,284.23a14.577,14.577,0,0,0,6.074-7.495,19.07,19.07,0,0,0,1.154-4.415,2.333,2.333,0,0,1,.188-.668c.231-.377,0-.862.3-1.215a.759.759,0,0,1,.249-.134c1.822-.152,3.6-.061,5.4-.055.456,0,.729.213.662.723A2.548,2.548,0,0,1,277.665,271.907Z" transform="translate(-85.568 -106.099)" fill="#fff"/><path d="M56.812,194.883h.158a1.136,1.136,0,0,0,.929-.3l.777-.182a63.739,63.739,0,0,1,8.412-.213c.37,0,.844-.158,1.051.37-2.217.935-4.379,2-6.681,2.733a9.668,9.668,0,0,1-2.308.541c-.261.055-.565-.109-.79.152a11.338,11.338,0,0,1-2.934.31,25.325,25.325,0,0,0-3.255,0c-.407.036-.856-.2-1.251.128l-.176.164c-.261.134-.644.061-.759.449-2.223,1.215-4.4,2.557-6.681,3.644a74.376,74.376,0,0,1-18.676,6.11,49.645,49.645,0,0,1-11.947,1.215A20.663,20.663,0,0,1,4.1,208.044a6.626,6.626,0,0,1-3.62-4.27,15.791,15.791,0,0,1,.607-9.718c.875-.462,1.822-.164,2.739-.231A1.427,1.427,0,0,1,5,194.069a16.745,16.745,0,0,0-.607,4.415c.121,2.089.7,3.99,2.66,5.1a9.615,9.615,0,0,0,3.772,1.026c.607.067,1.215.128,1.822.152a36.719,36.719,0,0,0,13.088-2.229,100.633,100.633,0,0,0,15.317-6.456c1.215-.65,2.429-1.33,3.644-1.992,3.486.188,6.972.03,10.459.1.431,0,1.105-.249,1.087.668C56.247,195.132,56.618,194.9,56.812,194.883Z" transform="translate(0.015 -76.09)" fill="#fff"/><path d="M391.732,248.514a72.89,72.89,0,0,0,3.887,6.59,16.7,16.7,0,0,0,7.106,6.359,21.222,21.222,0,0,0,6.25,1.646,29.718,29.718,0,0,0,4.154.285A55.682,55.682,0,0,0,427.936,261c1.105-.34,2.223-.65,3.31-1.045a8.668,8.668,0,0,0,1.889-1.045c.164-.061.194,0,.152.152a31.57,31.57,0,0,1-12.147,7.057,28.04,28.04,0,0,1-6.8,1.348,39.8,39.8,0,0,1-7.9-.146c1.415.808,2.9,1.124,4.209,1.822-.34.322-.771.243-1.172.243h-7.792a5.059,5.059,0,0,0-1.6.2,302.345,302.345,0,0,1-27.155-14.862.51.51,0,0,1,.577-.5c2.029,0,4.063-.31,6.074.176,4.391,2.484,8.843,4.859,13.362,7.07a4.681,4.681,0,0,0,.783.31c-1.215-1.543-2.429-3.079-3.523-4.725a54.505,54.505,0,0,1-4.349-8.084,1.6,1.6,0,0,1-.079-.292c.03-.364.328-.383.565-.389,1.591-.055,3.189-.049,4.786,0A.887.887,0,0,1,391.732,248.514Z" transform="translate(-146.424 -97.477)" fill="#fff"/><path d="M36.886,111.5c-.049-3.037.255-6.037.164-9.056,0-.674-.128-1.336-.152-2,0-.346-.194-.449-.5-.413a22.873,22.873,0,0,0-8.94,2.757,4.955,4.955,0,0,0-2.144,5.235,12.7,12.7,0,0,0,1.057,3.11c-1.956-1.02-4.251-3.316-4.051-5.618a5.2,5.2,0,0,1,2.308-3.76,21.13,21.13,0,0,1,5.746-2.988,35.227,35.227,0,0,1,5.248-1.573c.741-.152.856-.51.838-1.178a8.978,8.978,0,0,0-4.251-7.537c-1.118-.759-2.429-1.16-3.492-1.944a1.387,1.387,0,0,1-.225-2.229,2.429,2.429,0,0,1,2.739-.771c4.337,1.215,7.507,3.644,8.922,8.066a21.508,21.508,0,0,1,.929,3.091c.067.407.237.541.65.51a42.1,42.1,0,0,1,5.873.182,70.453,70.453,0,0,1,10.058,1.464,44.465,44.465,0,0,1,10.325,3.608,25.873,25.873,0,0,1,7.628,5.466c.17.188.328.389.5.607a.808.808,0,0,1-.729.37c-2.7,0-5.412.109-8.108-.043a37.929,37.929,0,0,0-7.24-4.579,29.918,29.918,0,0,0-9.25-2.587,61.339,61.339,0,0,0-7-.449c-.674,0-1.33.121-2,.146-.292,0-.407.146-.431.425s-.115.607-.121.911c0,3.195-.3,6.371-.607,9.548-.109,1.215-.285,2.429-.34,3.6a.553.553,0,0,1-.152.425c-.383-.486-.194-1.02-.14-1.543.091-.838-.03-.966-.875-1.033A4.258,4.258,0,0,1,36.886,111.5Z" transform="translate(-8.751 -32.741)" fill="#fff"/><path d="M398.23,22.606a46.538,46.538,0,0,1,2.788-5.169,68.909,68.909,0,0,1,5.77-8.5c2.466-3.079,5.144-5.922,8.788-7.647A12.493,12.493,0,0,1,421.1,0a10.923,10.923,0,0,1,9.821,5.934,18.87,18.87,0,0,1,2.241,8.9A45.891,45.891,0,0,1,432.1,25.017c-.3,1.579-.522,3.183-.978,4.731a28.946,28.946,0,0,1-4.974,0c-.492-.322-.2-.747-.109-1.111a36.337,36.337,0,0,0,1.026-4.452,26.254,26.254,0,0,0,.279-3.316c0-1.591.085-3.183,0-4.786a19.435,19.435,0,0,0-1.087-5.989,6.682,6.682,0,0,0-1.95-2.848A5.841,5.841,0,0,0,418.2,6.3a14.145,14.145,0,0,0-6.14,4.507,57.183,57.183,0,0,0-6.274,9.76c-.316.607-.607,1.215-.947,1.78-.17.261-.334.534-.7.528-1.6-.061-3.195,0-4.786-.03a1.446,1.446,0,0,1-1.118-.243Z" transform="translate(-156.354)" fill="#fff"/><path d="M302.207,37.722a21.465,21.465,0,0,0-3.1,2.794c-.146.213-.322.4-.468.607a31.911,31.911,0,0,0-4.555,7.288,43.354,43.354,0,0,0-2.508,7.774,6.62,6.62,0,0,0-.073,1.385c-.607-.881-1.488-.68-2.326-.692s-1.749,0-2.624,0a1.348,1.348,0,0,1-.947-.237,52.312,52.312,0,0,0-3.432-5.855c-2.63-3.608-5.964-6.165-10.447-6.96a13.969,13.969,0,0,0-10.252,2.138,19.994,19.994,0,0,0-8.151,10.368,6.273,6.273,0,0,1-.279.607,36.9,36.9,0,0,1-4.488.049.607.607,0,0,1-.48-.213,31.876,31.876,0,0,1,3.6-7.568,17.572,17.572,0,0,1,2.982-4.033c3.589-3.2,7.495-5.825,12.2-7.027a14.649,14.649,0,0,1,9.39.79,24.5,24.5,0,0,1,8.224,5.375,24.033,24.033,0,0,1,5,7.58c.061.14.121.285.194.419,0,0,.079.043.152.073.966-1.871,1.822-3.8,2.885-5.624a50.928,50.928,0,0,1,5.539-7.975,4.373,4.373,0,0,1,1-1.063A2.761,2.761,0,0,1,302.207,37.722Z" transform="translate(-97.399 -14.642)" fill="#fff"/><path d="M173.25,30.124a2.38,2.38,0,0,1,.109-.37c2.314-4.731,4.7-9.42,7.4-13.969a57.844,57.844,0,0,1,4.713-7.045,19.344,19.344,0,0,1,5.746-5.1,12.226,12.226,0,0,1,8.169-1.275c2.193.419,3.644,1.98,5.023,3.644,1.95,2.344,2.606,5.15,3.116,8.029a37.982,37.982,0,0,1,.03,8.983,50.532,50.532,0,0,1-.65,5.97c-.1.528-.213,1.057-.322,1.585a1.16,1.16,0,0,1-.607.225,38.538,38.538,0,0,1-4.434-.061c-.547-.292-.255-.729-.158-1.093q.826-3.067,1.452-6.183a25.618,25.618,0,0,0-.261-10.677,9.378,9.378,0,0,0-.935-2.533c-1.616-2.921-4.251-3.747-7.288-2.387a15.184,15.184,0,0,0-5.733,4.743,66.027,66.027,0,0,0-5.539,8.77c-1.585,2.879-2.921,5.873-4.306,8.843-.121.261-.188.607-.607.492a1.852,1.852,0,0,0-1.111-.213h-2.691C173.9,30.488,173.505,30.494,173.25,30.124Z" transform="translate(-68.017 -0.843)" fill="#fff"/><path d="M417.66,278.011c.176-.528.607-.443,1.026-.443h9.535c1.245.413,2.49.814,3.729,1.215a80.337,80.337,0,0,0,10.325,2.648,59.818,59.818,0,0,0,14.576,1.051,52.493,52.493,0,0,0,12.354-2.126,50.124,50.124,0,0,0,16.478-8.454c.814-.607,1.591-1.306,2.381-1.962a2.26,2.26,0,0,1,1.257-.237h2.606c.389,0,.838,0,.96.528-.753.711-1.294,1.6-2.047,2.308a43.122,43.122,0,0,1-8.795,6.45,54.053,54.053,0,0,1-15.117,5.308c-1.695.352-3.353.972-5.071,1.269-1.974.346-3.966.565-5.97.729-1.822.152-3.644.14-5.466.121a65.492,65.492,0,0,1-10.89-1.111,79.108,79.108,0,0,1-11.206-2.915,93.237,93.237,0,0,1-9.031-3.608C418.729,278.521,418.194,278.266,417.66,278.011Z" transform="translate(-163.984 -105.893)" fill="#fff"/><path d="M204.571,268.893h-4.215a2.612,2.612,0,0,0-1.385.31,3.037,3.037,0,0,0-3.037-1.452,26.772,26.772,0,0,1-14.03-3.274,20.128,20.128,0,0,1-8.151-8.114,81.213,81.213,0,0,1-4.027-8.351,2.479,2.479,0,0,1-.1-.364c0-.292.219-.34.413-.352a22.583,22.583,0,0,1,3.51,0,.99.99,0,0,1,.413.194,38.926,38.926,0,0,0,7.641,10.325,25.219,25.219,0,0,0,13.143,6.729c-.534-.607-.972-1.166-1.445-1.676a52.233,52.233,0,0,1-9.39-13.811,9.6,9.6,0,0,1-.334-.941c.03-.553.474-.541.838-.547,1.148,0,2.3-.055,3.438,0a1.038,1.038,0,0,1,.765.7,98.525,98.525,0,0,0,11,15.706,1.148,1.148,0,0,0,1.142.443c5.12-.571,9.778-2.521,14.3-4.859a5.466,5.466,0,0,0,2.053-1.737,5.534,5.534,0,0,1,.541-.656c.134-.146.3-.364.51-.207s.067.383,0,.571a5.343,5.343,0,0,1-.516.856,11.443,11.443,0,0,1-3.152,2.94,34.693,34.693,0,0,1-10.847,5.363,3.808,3.808,0,0,1-1.288.188c.656.456,1.178.911,1.731,1.33C204.316,268.407,204.614,268.535,204.571,268.893Z" transform="translate(-66.596 -97.073)" fill="#fff"/><path d="M281.786,202.218c1.045,2.077,2.089,4.148,3.116,6.231a1.7,1.7,0,0,0,1.136.929,89.01,89.01,0,0,1,8.813,3.334c3.6,1.555,7.118,3.28,10.611,5.065.134.073.249.176.377.261a1.033,1.033,0,0,1-.966.389c-2.94,0-5.879.1-8.819-.061l-5.5-2.806c-1-.51-2-1.033-3.189-1.646.516,1.348.984,2.5,1.4,3.674a68.5,68.5,0,0,1,2.168,6.5,18.981,18.981,0,0,0-5.654-.109c-.431,0-.462-.352-.547-.607a101.479,101.479,0,0,0-4.166-10.981,2.369,2.369,0,0,0-2.12-1.634c-3.34-.273-6.553-.073-9.3,2.168-.2.164-.407.334-.7.231a1.063,1.063,0,0,0-.607-.285,20.6,20.6,0,0,0-3.772.109c-.377.067-.474-.237-.607-.468a20.942,20.942,0,0,0-3.292-4.251c-.267-.261-.607-.522-.468-.984a.565.565,0,0,1,.407-.328,7.33,7.33,0,0,1,3.535.109,14.978,14.978,0,0,1,2.156,3c.225.395.389.541.868.243a26.245,26.245,0,0,1,10.173-3.4c.492-.073.674-.237.4-.753-.607-1.184-1.215-2.387-1.822-3.583-.231-.674.292-.68.68-.7,1.215-.049,2.381,0,3.565,0h1.215a.96.96,0,0,1,.9.352Z" transform="translate(-101.952 -79.253)" fill="#fff"/><path d="M196.41,157.2c-1.154-.826-2.193-.243-3.225.358a9.979,9.979,0,0,0-2.108,1.822c-.292.3-.456.364-.607-.128-.474-1.482-2.806-2.484-4.251-2.211a7.665,7.665,0,0,0-2.757,1.16,20.379,20.379,0,0,0-6.2,6.8,14.22,14.22,0,0,0-2.168,4.5,3.643,3.643,0,0,0,.607,3.474,4.2,4.2,0,0,0,3.037,1.166,7.9,7.9,0,0,0,5.09-1.749,44.642,44.642,0,0,0,5.636-5.181c.328-.328.5-.82,1.075-1.051a27.806,27.806,0,0,0-.887,4.756,8.181,8.181,0,0,0,.389,3.711,1.032,1.032,0,0,0,.717.237h4.009a1.051,1.051,0,0,0,.711-.237,36.63,36.63,0,0,1,.449-7.24c.413-2.3.929-4.586,1.482-6.857A2.907,2.907,0,0,0,196.41,157.2Zm-9.293,7.841a19.357,19.357,0,0,1-5.357,4.251,3.888,3.888,0,0,1-.954.3c-.856.158-1.336-.346-1.154-1.215a7.4,7.4,0,0,1,1.646-2.934,18.593,18.593,0,0,1,2.9-2.879,2.187,2.187,0,0,1,2.357-.522,1.518,1.518,0,0,1,1.026,1.634A1.652,1.652,0,0,1,187.118,165.036Z" transform="translate(-68.675 -61.561)" fill="#fff"/><path d="M378.737,149.673c-.1-.468-.486-.292-.753-.292h-6.869a3.93,3.93,0,0,1-1.215-.158l2.94-2.7a.941.941,0,0,0,.346-.856c-.17-3.2-.456-6.4-.346-9.614a33.71,33.71,0,0,1,0-4.828v-1.695a.832.832,0,0,1,.559-.225q1.682-.055,3.371,0a.663.663,0,0,1,.747.771,1.055,1.055,0,0,1-.036.273c-.152,1.282-.182,2.569-.219,3.851-.079,2.66,0,5.32,0,7.981a2.6,2.6,0,0,1-.152,1.142l-.073.14c.067-.036.061-.115.109-.164a1.822,1.822,0,0,1,.565-.82A142.418,142.418,0,0,0,388.789,130.1c.255-.31.5-.607.96-.553,1.907.079,3.82,0,5.727.043.352,0,.8-.109.972.389a101.841,101.841,0,0,1-6.62,8.5,98.23,98.23,0,0,1-8.971,9.365,24.91,24.91,0,0,1-2.12,1.822Z" transform="translate(-145.231 -50.759)" fill="#fff"/><path d="M436.1,48.707h4.324c.273,0,.571-.1.8.158a98.391,98.391,0,0,1-2.6,9.718c-1.306,3.656-2.806,7.13-4.343,10.617-1.215,2.691-2.472,5.339-3.808,7.956-.128.255-.285.486-.431.729-1.549-.182-3.11-.049-4.664-.091a4.519,4.519,0,0,1-1.215-.085c-.522-.31-.2-.686-.043-1,.9-1.822,1.822-3.6,2.557-5.466,2.527-6.3,5.357-12.481,7.847-18.828q.607-1.476,1.081-2.982C435.683,49.169,435.731,48.835,436.1,48.707Z" transform="translate(-166.421 -19.117)" fill="#fff"/><path d="M196.963,186.12h5.466a5.74,5.74,0,0,0,.759,1.913c.158.328.395.34.7.219a8.108,8.108,0,0,1,2.952-.443c1.47,0,2.934-.134,4.4-.128a28.473,28.473,0,0,1,13.416,3.225,45.9,45.9,0,0,1,9.785,6.839,20.407,20.407,0,0,1,2.848,3.122h-3.037c-.358,0-.747,0-.85.474-.31.079-.474-.152-.662-.316a54.838,54.838,0,0,0-9.76-6.96,26.93,26.93,0,0,0-10.586-3.255c-1.731-.17-3.456-.091-5.187-.128a1.822,1.822,0,0,0-.753.079,4.6,4.6,0,0,0,1.148.553c.437.188.443.425.14.759a4.4,4.4,0,0,1-4.859,1.1,1.646,1.646,0,0,0-1.822.237,21.578,21.578,0,0,0-2.891,2.575c-.207.219-.383.516-.765.419a28.059,28.059,0,0,0-3.711-.109c-.383,0-.79.073-1.105-.243a9.445,9.445,0,0,1,1.822-2.144,26.4,26.4,0,0,1,4.288-3.371c.395-.249.4-.389.121-.753A8.667,8.667,0,0,1,196.963,186.12Z" transform="translate(-75.611 -73.079)" fill="#fff"/><path d="M211.492,49h5.26c-.522,2.114-.99,4.251-1.585,6.329-.486,1.731-1.075,3.444-1.688,5.138a136.35,136.35,0,0,1-7.209,16.648c-.146.267-.219.607-.51.753a21.707,21.707,0,0,0-6.4-.1c-.431-.249-.14-.534,0-.771.559-1.045,1.16-2.071,1.725-3.116a125.849,125.849,0,0,0,6.019-12.548c1.537-3.778,2.757-7.671,3.948-11.54C211.134,49.462,211.134,49.109,211.492,49Z" transform="translate(-78.181 -19.24)" fill="#fff"/><path d="M85.725,185.469c-.055.049-.1.109-.164.158-.206.176-.328.607-.729.3s.152-.522.194-.814c-.237-.225-.534-.115-.8-.115h-9.28a2.332,2.332,0,0,1-1.324-.322c1.822-1.245,3.729-2.375,5.509-3.693a46.124,46.124,0,0,0,6.074-5.715c1.6-1.713,3-3.583,4.555-5.333a.856.856,0,0,1,.516-.115c2.587.073,5.169,0,7.75.043.377,0,.85-.146,1.051.383a54.929,54.929,0,0,1-3.407,5.3,45.7,45.7,0,0,1-7.9,8.054l-2.053,1.628C85.561,185.329,85.421,185.414,85.725,185.469Z" transform="translate(-28.898 -66.677)" fill="#fff"/><path d="M319.57,228.838c.219-.267.522-.164.79-.164h7.707a4.191,4.191,0,0,0,1.288-.164,58.608,58.608,0,0,1,5.618,3.079c5.333,3.195,10.453,6.717,15.682,10.076,2.642,1.695,5.327,3.334,7.993,4.992h-5.606a1.215,1.215,0,0,0-1.051.322c-3.48-2.01-6.948-4.039-10.434-6.031q-4.251-2.429-8.5-4.756C328.571,233.721,324.083,231.286,319.57,228.838Z" transform="translate(-125.469 -89.723)" fill="#fff"/><path d="M415.315,96.205h5.32c.273,0,.65-.152.735.322a121.784,121.784,0,0,1-9.4,16.283,42.346,42.346,0,0,1-3.037,4.173c-.231-.249-.528-.146-.8-.152h-5.229a1.767,1.767,0,0,1-.966-.164c-.194-.377.128-.565.3-.8,2.253-2.982,4.513-5.958,6.547-9.11,2.114-3.243,4.124-6.541,5.922-9.967C414.884,96.569,414.926,96.205,415.315,96.205Z" transform="translate(-157.788 -37.765)" fill="#fff"/><path d="M261.629,154.471c-.134-.213-.279-.425-.4-.65-1.865-3.644-3.753-7.234-5.588-10.878a80.778,80.778,0,0,1-4.391-10.38,7.233,7.233,0,0,1-.607-1.968c-.17-.456.2-.5.449-.51,1.591-.067,3.183-.073,4.78,0a.966.966,0,0,1,.862.674c.14.358.255.729.425,1.069.717,1.962,1.458,3.905,2.132,5.879a67.039,67.039,0,0,0,5.655,11.935c.82,1.4,1.628,2.812,2.429,4.215-.219.437-.607.377-1.008.383h-3.219a4.087,4.087,0,0,0-1.518.231Z" transform="translate(-98.388 -51.057)" fill="#fff"/><path d="M268.76,169.873c.049-.48.4-.456.741-.456h4.094a1.579,1.579,0,0,0,.9-.158c1.676,2.593,3.249,5.248,4.743,7.944,2.114,3.832,3.96,7.811,5.94,11.716a3.534,3.534,0,0,1,.176.5,1.385,1.385,0,0,0-.662-.158h-5.1c-.34,0-.638,0-.607.474a6.4,6.4,0,0,1-.358-.607q-3.644-7.088-7.258-14.182Z" transform="translate(-105.519 -66.459)" fill="#fff"/><path d="M395.454,233.88H390.34c-.273,0-.577-.1-.8.164a30.11,30.11,0,0,1-1.852-4.318,123.3,123.3,0,0,1-4.731-15.864c-.207-.875-.358-1.755-.534-2.636a.984.984,0,0,1,.711-.237h4a1,1,0,0,1,.717.237c0,.219-.067.462.152.607s-.043.547.17.765c.565,2.047,1.118,4.1,1.688,6.152a88.236,88.236,0,0,0,4.713,13.046C394.871,232.507,395.156,233.2,395.454,233.88Z" transform="translate(-150.147 -82.843)" fill="#fff"/><path d="M335.284,31.093a6.116,6.116,0,0,0-2.964,0,1,1,0,0,1,.425-.607,43.973,43.973,0,0,1,9.936-8.066,13.738,13.738,0,0,1,7.987-1.986,6.424,6.424,0,0,1,4.859,3.274,20.844,20.844,0,0,1,2.654,6.329,11.785,11.785,0,0,1,.413,2.812c0,1.622-.723,2.429-2.132,2.466-1.755,0-2.636-.783-2.685-2.429a14.091,14.091,0,0,0-.158-3.237,6.407,6.407,0,0,0-2.332-4.051c-1.433-.984-2.891-.838-4.452-.607-3.644.5-6.511,2.46-9.359,4.531C336.723,29.994,336.007,30.54,335.284,31.093Z" transform="translate(-130.475 -8.013)" fill="#fff"/><path d="M379.254,114.177c.073-.571-.109-.82-.747-.8-1.245.049-2.5,0-3.747,0,0-3.328.285-6.632.607-9.942a105.065,105.065,0,0,1,1.725-11.582,25.766,25.766,0,0,1,.784-3.3.99.99,0,0,1,.735-.37c1.281-.049,2.569-.043,3.851,0a.771.771,0,0,1,.559.219,1.166,1.166,0,0,1,0,.966c-.607,2.5-1.105,5.011-1.567,7.531a3.122,3.122,0,0,0-.121.917c-.534,4.507-1.215,8.989-1.537,13.52-.043.692-.134,1.379-.146,2.077C379.619,113.7,379.68,114.061,379.254,114.177Z" transform="translate(-147.139 -34.613)" fill="#fff"/><path d="M109.487,160.541c-.237-.243-.534-.14-.808-.14h-7.215a4.033,4.033,0,0,1-1.294-.17,5.855,5.855,0,0,1,.954-1.385,21.257,21.257,0,0,0,3.644-8.1c0-.049.061-.079.1-.121.194-.231,0-.547.152-.783a.4.4,0,0,1,0-.146c.206-.34-.043-.747.152-1.087h0a11,11,0,0,0,.073-2.429.869.869,0,0,1,.9-1.008c1.9-.085,3.808-.085,5.709,0a.777.777,0,0,1,.844.941c-.073,1.354.079,2.721-.079,4.075a22.308,22.308,0,0,1-1.871,7.744A10.647,10.647,0,0,1,109.487,160.541Z" transform="translate(-39.322 -56.975)" fill="#fff"/><path d="M301.608,238.026c.036-.322.273-.316.516-.316h4.409a.984.984,0,0,1,.814.474,71.319,71.319,0,0,1,2.338,9.165,49.2,49.2,0,0,1,.911,11.042c0,.249.067.522-.146.735,0-1.409,0-1.409-1.439-1.409H304.22a1.658,1.658,0,0,1-.219-1.263,48.808,48.808,0,0,0-.777-10.471c-.437-2.278-.96-4.537-1.6-6.772C301.541,238.828,301.323,238.433,301.608,238.026Z" transform="translate(-118.36 -93.336)" fill="#fff"/><path d="M111.107,140.883c0-1.312-.036-2.624,0-3.936,0-.607-.279-.862-.8-.869H104.6c-.534,0-.8.31-.814.9a5.273,5.273,0,0,1-.14,2.344c0-.929-.049-1.858,0-2.782.237-3.037-.947-5.624-2.363-8.169a37.808,37.808,0,0,0-4.92-6.584c.219-.267.522-.164.8-.164h6.821a3.948,3.948,0,0,0,1.215-.164,26.45,26.45,0,0,1,5.879,13.259,34.832,34.832,0,0,1,.164,5.794A1.02,1.02,0,0,1,111.107,140.883Z" transform="translate(-37.826 -47.691)" fill="#fff"/><path d="M246.672,69.387h4.166c.273,0,.577-.1.8.158-.316,1.555-.741,3.085-.966,4.664a63.043,63.043,0,0,0-.607,8.357,71.491,71.491,0,0,0,.486,8.224,1.427,1.427,0,0,1-1.026.231H246.49a1.257,1.257,0,0,0-1.385.711,7.988,7.988,0,0,1-.261-2.186,21.577,21.577,0,0,1-.188-3.073c-.043-1.215-.049-2.466-.134-3.7a29.266,29.266,0,0,1,.31-5.691,35.9,35.9,0,0,1,1.688-7.331C246.563,69.624,246.624,69.508,246.672,69.387Z" transform="translate(-95.991 -27.237)" fill="#fff"/><path d="M519.78,232.977a39.654,39.654,0,0,0-11.339-4.792,2.43,2.43,0,0,0-1.925.231,13.492,13.492,0,0,1-5.375,1.822,2.363,2.363,0,0,1-2.478-1.215,2.338,2.338,0,0,1,.377-2.721,7.009,7.009,0,0,1,6.754-2.569,45.8,45.8,0,0,1,8.831,2.144,24.943,24.943,0,0,1,8.5,4.932,11.539,11.539,0,0,1,1.786,1.7c-.237.456-.686.377-1.075.389C522.482,232.929,521.128,232.838,519.78,232.977Z" transform="translate(-195.68 -87.82)" fill="#fff"/><path d="M192.722,96a3.535,3.535,0,0,1,1.713-.316h3.693a1.118,1.118,0,0,1,1.13.48,130.172,130.172,0,0,1-9.718,15.293,2.825,2.825,0,0,1-.389.37c-1.944.14-3.887.067-5.831.036a1.1,1.1,0,0,1-.51-.146c-.437-.3-.152-.607,0-.856.723-1.033,1.421-2.089,2.138-3.122,2.478-3.559,4.762-7.24,6.985-10.932C192.163,96.478,192.236,96.041,192.722,96Z" transform="translate(-71.679 -37.565)" fill="#fff"/><path d="M149.107,159.5c0-.534-.109-.656-.607-.3a4.677,4.677,0,0,1-1.294.929,1.172,1.172,0,0,0-1.02-.407H143.5a1.215,1.215,0,0,1-.941-.219,68.02,68.02,0,0,0,6.517-6.244c.164-.188.249-.869.838-.449.1.067.079-.158.067-.231a29.459,29.459,0,0,1-.146-4.391,21.937,21.937,0,0,1-.067-2.824.389.389,0,0,1,.346-.443,8.132,8.132,0,0,1,2.818,0,.462.462,0,0,1,.316.3,20.9,20.9,0,0,1,.079,2.429,10.49,10.49,0,0,0,1.713-1.822,1.518,1.518,0,0,1,.911-.65c1.6-.085,3.189-.049,4.78,0,.364,0,.8,0,.9.51a44.951,44.951,0,0,0-3.5,3.784,38.428,38.428,0,0,1-4.434,4.4,1.725,1.725,0,0,0-.565,1.652,40.326,40.326,0,0,1,.3,4.61,4.825,4.825,0,0,0-2.612-.395C150.255,159.7,149.642,159.892,149.107,159.5Z" transform="translate(-55.967 -56.854)" fill="#fff"/><path d="M155.87,100.535a61.646,61.646,0,0,1,.668-6.341c.413-3.3.99-6.59,1.67-9.851.407-1.956.8-3.917,1.391-5.831.407-.249.85-.079,1.275-.085h2.909c.407,0,.85,0,.935.571a8.073,8.073,0,0,1-.37,1.731c-1.537,5.995-2.709,12.062-3.644,18.178-.073.449.14,1.063-.5,1.324a1.136,1.136,0,0,0-1.16-.571c-.607.036-1.245,0-1.865,0-.516,0-.917.067-1.02.668a.231.231,0,0,1-.292.207Z" transform="translate(-61.193 -30.774)" fill="#fff"/><path d="M166.968,67.3c.036-.456-.255-.474-.607-.468h-3.079A3.99,3.99,0,0,1,162,66.683a56.706,56.706,0,0,1,2.022-6.893,101.714,101.714,0,0,1,4.8-11.54,24.961,24.961,0,0,0,4.251.152c.328,0,.717-.085.686.456a8.406,8.406,0,0,1-.759,2.429,116.055,116.055,0,0,0-5.466,14.9C167.466,66.562,167.527,67.114,166.968,67.3Z" transform="translate(-63.6 -18.945)" fill="#fff"/><path d="M169.468,233.062h-3.644c-.243,0-.522-.085-.717.158a90.971,90.971,0,0,1-3.559-9.542q-1.962-6.074-3.377-12.262a5.057,5.057,0,0,1-.061-.686.644.644,0,0,1,.48-.219,34.549,34.549,0,0,1,3.547,0,.771.771,0,0,1,.486.213c.413,1.956.8,3.917,1.215,5.867a77.4,77.4,0,0,0,3.735,12.39C168.2,230.353,168.854,231.7,169.468,233.062Z" transform="translate(-62.072 -82.638)" fill="#fff"/><path d="M170.2,136.625a1.215,1.215,0,0,0-1-.292h-4.859a.866.866,0,0,1,.346-.808c3.565-4.251,6.918-8.709,10.179-13.216.164-.225.255-.607.65-.553a10.2,10.2,0,0,0,2.818.146c.941.024,1.992,0,2.988,0,.249,0,.522-.079.711.164-1.494,1.95-3,3.887-4.482,5.843-1.822,2.375-3.711,4.652-5.685,6.869Z" transform="translate(-64.51 -47.805)" fill="#fff"/><path d="M384.98,77.328c-.061-.043-.115-.128-.176-.128a26.882,26.882,0,0,0-4.944.115,46.686,46.686,0,0,1,1.3-5.229c1.093-3.978,2.429-7.9,3.814-11.764a4.206,4.206,0,0,1,.285-.541,1.282,1.282,0,0,1,.875-.231h3.851a1.105,1.105,0,0,1,.923.279c.176.674-.358,1.142-.5,1.725-.128.231-.389.389-.364.7a.748.748,0,0,1-.043.194,1.379,1.379,0,0,0-.31.832,135.643,135.643,0,0,0-4.172,13.04C385.442,76.685,385.49,77.17,384.98,77.328Z" transform="translate(-149.142 -23.377)" fill="#fff"/><path d="M245.49,105.571c-.146-.808.231-.984.978-.954,1.482.055,2.97,0,4.452,0,.437,2.344.783,4.713,1.342,7.033.771,3.207,1.682,6.371,2.7,9.511a6.275,6.275,0,0,1,.158.668s-.055,0-.061-.043c-.377-1.591-1.573-1.6-2.861-1.518-.972.061-1.95,0-2.927,0-.255,0-.607-.121-.668.31a55.756,55.756,0,0,1-2.32-8.734,10.258,10.258,0,0,1-.322-2.429c-.188-.292.049-.65-.152-.941v-.3c-.182-.292.049-.65-.146-.941v-.3c-.194-.395.061-.85-.152-1.251Q245.5,105.627,245.49,105.571Z" transform="translate(-96.37 -41.077)" fill="#fff"/><path d="M533.606,238.7c.176-.358.51-.292.814-.3h3.413a1.646,1.646,0,0,0,.9-.164,10.8,10.8,0,0,1,2.642,3.48A20.38,20.38,0,0,1,543.2,245.8a9.111,9.111,0,0,1-1.093,7.124,33.691,33.691,0,0,1-3.322,4.737,2.384,2.384,0,0,1-.358.285,1.13,1.13,0,0,0-.984-.31H533.6a30.528,30.528,0,0,0,4.021-4.689A10.656,10.656,0,0,0,539.5,247a7.975,7.975,0,0,0-1.986-4.926A20.235,20.235,0,0,0,533.606,238.7Z" transform="translate(-209.507 -93.544)" fill="#fff"/><path d="M394.38,51.341c-.073-.431-.413-.31-.668-.31H388.78a44.369,44.369,0,0,1,1.719-4.7q1.67-4.251,3.6-8.375c.115-.249.285-.48.425-.723h5.1a1.822,1.822,0,0,1,.978.158.717.717,0,0,1-.1.607c-1.919,4.251-3.832,8.539-5.648,12.852C394.756,51.056,394.732,51.353,394.38,51.341Z" transform="translate(-152.644 -14.614)" fill="#fff"/><path d="M386.273,201.377H380.85c-.729-2.909-1.172-5.873-1.695-8.825a20.867,20.867,0,0,1-.486-3.571,11.007,11.007,0,0,0-.237-2.429c-.049-.377.049-.607.358-.607a23.661,23.661,0,0,1,4.683.1c.8,5.017,1.622,10.027,2.788,14.977a2.656,2.656,0,0,1,.012.358Z" transform="translate(-148.576 -72.982)" fill="#fff"/><path d="M309.87,69.15c1.47,0,2.94.036,4.409,0,.759,0,1.415-.036,1.488.947.206,1.342.449,2.685.607,4.033a46.926,46.926,0,0,1,.322,7.331A3.644,3.644,0,0,1,315,84.5a2.938,2.938,0,0,1-4.494-2.6,21.02,21.02,0,0,1,.468-6.159,8.372,8.372,0,0,0-.923-6.074,5.062,5.062,0,0,1-.176-.516Z" transform="translate(-121.66 -27.151)" fill="#fff"/><path d="M194.433,236.876h-3.681c-.31,0-.607-.043-.8.322a31.767,31.767,0,0,1-2.162-5.6,46.044,46.044,0,0,1-1.822-8.187,9.185,9.185,0,0,1-.061-3.753.79.79,0,0,1,.486-.213,21.439,21.439,0,0,1,3.9.079c.383.231.322.607.328.972a37.692,37.692,0,0,0,3.644,15.445C194.4,236.233,194.664,236.518,194.433,236.876Z" transform="translate(-72.917 -86.143)" fill="#fff"/><path d="M155.268,114.153c.413-1.087.413-1.087,1.773-1.087.607,0,1.172.043,1.755,0s.923.14.82.8a.3.3,0,0,1,.073.207c-.043.3-.036.607-.067.9a1.415,1.415,0,0,1-.049.231,3.868,3.868,0,0,0-.043,1.124c-.164,2.138-.486,4.251-.68,6.389-.213,2.308-.449,4.616-.559,6.936-.043.929-.17,1.822-.17,2.782,0,.255.03.607-.364.668,0-.249-.036-.474-.364-.474h-.225c-.844.036-1.919-.346-2.466.134s-.128,1.6-.2,2.429v.541c-.194-.188-.14-.431-.14-.662,0-2.247-.061-4.494,0-6.742.1-3.3.243-6.59.48-9.882a26.784,26.784,0,0,1,.425-4.288Z" transform="translate(-60.59 -44.393)" fill="#fff"/><path d="M106.083,188.29c-.237-.243-.541-.14-.808-.14H98.594a3.171,3.171,0,0,0-1.367.176c-.273.121-.492.134-.607-.188,1.755-.729,3.565-1.312,5.314-2.077a94.819,94.819,0,0,0,9.208-4.75c1.944-1.118,3.869-2.265,5.8-3.4,1.609.115,3.225.03,4.859.121.194,0,.425.049.431.334l-.292.188a4.859,4.859,0,0,0-2.029,1.373A103,103,0,0,1,106.083,188.29Z" transform="translate(-37.929 -69.856)" fill="#fff"/><path d="M161.159,201h-4.513a36.072,36.072,0,0,1-1.063-5.114c-.389-2.332-.759-4.664-1.051-7a13.24,13.24,0,0,1-.207-2.77c.036-.413.389-.37.607-.383,1.075-.043,2.156-.049,3.231,0,.662.03.826.273.869,1.1.055,1.111.243,2.211.4,3.31.292,1.172.346,2.375.534,3.559Q160.576,197.353,161.159,201Z" transform="translate(-60.584 -72.912)" fill="#fff"/><path d="M44.209,129.68h2.533c.717,0,1,.31.875.984a7.343,7.343,0,0,0-.146,1.822,59.035,59.035,0,0,1-.966,6.918,84.774,84.774,0,0,1-2.3,9.906,1.585,1.585,0,0,1-.146.261,4.938,4.938,0,0,0-2.016-.255c-.37,0-.765.079-1.081-.219.541-2.533,1.136-5.053,1.6-7.6.541-2.946,1.1-5.891,1.348-8.886C44.021,131.611,44.106,130.646,44.209,129.68Z" transform="translate(-16.074 -50.918)" fill="#fff"/><path d="M5.751,187.25H1.84a21.8,21.8,0,0,1,2-4.343c1.033-1.877,2.278-3.614,3.456-5.4a2.381,2.381,0,0,1,2.539-1.093,2.715,2.715,0,0,1,2.429,1.755,6.008,6.008,0,0,1,.182.668c.261,1.063.182,1.312-.808,1.646-2.672.9-4.1,2.988-5.241,5.369C6.189,186.315,5.964,186.789,5.751,187.25Z" transform="translate(-0.714 -69.248)" fill="#fff"/><path d="M190.494,213H186a19.132,19.132,0,0,1,3.778-10.361,1.5,1.5,0,0,1,.237-.194h4.173c.3,0,.607-.055.808.3s-.128.474-.279.662a16.945,16.945,0,0,0-3.9,8.752A1.215,1.215,0,0,1,190.494,213Z" transform="translate(-73.023 -79.489)" fill="#fff"/><path d="M159.066,183.549a11.654,11.654,0,0,1-.462-2.994c-.1-1.166-.067-1.215-1.251-1.215h-2.7c-.249,0-.522-.079-.723.164a5.934,5.934,0,0,1-.261-2.108c-.182-2.812-.437-5.624-.34-8.448,1.105,0,2.217.03,3.322,0a.862.862,0,0,1,1.014.638,8.521,8.521,0,0,1,.261,2.508c.243,2.855.541,5.7.832,8.552a28.919,28.919,0,0,1,.31,2.9Z" transform="translate(-60.186 -66.329)" fill="#fff"/><path d="M35.936,161.6h2.247c.358,0,.747,0,.85.474-.735,2.108-1.549,4.191-2.332,6.286a67.793,67.793,0,0,1-6.529,12.414c-.607,1-1.306,1.968-2.065,3.1a3.116,3.116,0,0,1,.431-1.743,122.789,122.789,0,0,0,7.288-20.255,1.306,1.306,0,0,1,.109-.279Z" transform="translate(-11.026 -63.452)" fill="#fff"/><path d="M135.346,174.889c-.5-.292-1.045-.1-1.567-.14-1.215-.091-2.5.225-3.7-.316,1.682-1.166,3.438-2.211,5.059-3.462l2.551-1.962h4.094c.419,0,.838,0,.553.607a56.846,56.846,0,0,1-4.586,3.6C136.961,173.8,136.147,174.343,135.346,174.889Z" transform="translate(-51.066 -66.361)" fill="#fff"/><path d="M83.86,201.018c.31-.5.607-.923,1.215-.249a.771.771,0,0,0,1.045-.121.814.814,0,0,1,1.124-.079,1.524,1.524,0,0,0,1.142.3,4.63,4.63,0,0,1-1.962.146C85.555,201.054,84.7,201.024,83.86,201.018Z" transform="translate(-32.918 -78.678)" fill="#fff"/><path d="M134.93,180.372c.043-.607.565-.8.954-1.069a1.938,1.938,0,0,1,1.075-.3A8.12,8.12,0,0,1,134.93,180.372Z" transform="translate(-52.971 -70.283)" fill="#fff"/><path d="M374.619,132.47V137.3a10.027,10.027,0,0,1-.128-2.952A3.941,3.941,0,0,1,374.619,132.47Z" transform="translate(-147.011 -52.014)" fill="#fff"/><path d="M375.52,166.311c.194-.182.352-.413.474.085a11.7,11.7,0,0,1,.14,2.563c-.328-.711,0-1.5-.285-2.229C375.812,166.529,375.812,166.329,375.52,166.311Z" transform="translate(-147.437 -65.217)" fill="#fff"/><path d="M376.522,171.05c.334.547.079,1.148.158,1.719C376.376,172.234,376.582,171.627,376.522,171.05Z" transform="translate(-147.826 -67.162)" fill="#fff"/><path d="M94.739,195.08c-.231.34-.443.729-.929.3A2.429,2.429,0,0,1,94.739,195.08Z" transform="translate(-36.825 -76.597)" fill="#fff"/><path d="M376.783,174.11c.322.492.085,1.039.152,1.555C376.649,175.173,376.837,174.651,376.783,174.11Z" transform="translate(-147.929 -68.364)" fill="#fff"/><path d="M82.315,202.12c-.073-.7.413-.456.759-.449a1.822,1.822,0,0,1-.759.449Z" transform="translate(-32.309 -79.167)" fill="#fff"/><path d="M472.2,265.559l-.152-.152.747-.607A1.118,1.118,0,0,1,472.2,265.559Z" transform="translate(-185.34 -103.973)" fill="#fff"/><path d="M377,176.67c.316.437.091.935.158,1.4C376.9,177.63,377.079,177.138,377,176.67Z" transform="translate(-148.019 -69.369)" fill="#fff"/><path d="M96.11,200.454c.188-.443.462-.431.79-.152C96.651,200.533,96.377,200.424,96.11,200.454Z" transform="translate(-37.728 -78.57)" fill="#fff"/><path d="M245.513,106.43c.31.389.091.838.152,1.251C245.379,107.292,245.567,106.849,245.513,106.43Z" transform="translate(-96.386 -41.789)" fill="#fff"/><path d="M108.266,150.87c-.055.358.146.759-.152,1.087C108.169,151.593,107.987,151.2,108.266,150.87Z" transform="translate(-42.438 -59.238)" fill="#fff"/><path d="M315.991,275.293c.055-.364-.14-.759.152-1.093C316.107,274.583,316.265,274.977,315.991,275.293Z" transform="translate(-124.058 -107.663)" fill="#fff"/><path d="M331.33,43.207a.747.747,0,0,1,.468-.607.735.735,0,0,1-.468.607Z" transform="translate(-130.086 -16.727)" fill="#fff"/><path d="M246,111c.279.273.109.607.152.941C245.915,111.68,246.055,111.334,246,111Z" transform="translate(-96.582 -43.584)" fill="#fff"/><path d="M245.773,109c.279.273.1.607.146.941C245.663,109.65,245.8,109.31,245.773,109Z" transform="translate(-96.488 -42.798)" fill="#fff"/><path d="M391.768,213.205c-.279-.206-.128-.5-.17-.765C391.84,212.653,391.719,212.95,391.768,213.205Z" transform="translate(-153.749 -83.414)" fill="#fff"/><path d="M108.012,152.9c0,.261.109.565-.152.783C107.9,153.422,107.775,153.125,108.012,152.9Z" transform="translate(-42.342 -60.036)" fill="#fff"/><path d="M305.786,271.9c.055-.413-.121-.862.152-1.245C305.877,271.063,306.1,271.512,305.786,271.9Z" transform="translate(-120.054 -106.27)" fill="#fff"/><path d="M258.52,231.207a8.158,8.158,0,0,1,.868-2.132,51.834,51.834,0,0,1,4.251-7.574c.474-.692-.115-1.081-.152-1.622,0-.267.219-.31.443-.31h3.644c.322,0,.607.055.419.486a9.723,9.723,0,0,1-1,1.166c-.577.51-.5.978-.182,1.616a23.426,23.426,0,0,1,2.429,7.9c-.607.4-1.275.158-1.913.243-.474-.043-.437-.443-.492-.753a31.205,31.205,0,0,0-1.47-5.606c-.273-.747-.474-.79-.941-.128a27.532,27.532,0,0,0-3.231,5.7c-.14.34-.158.79-.607.9A2.727,2.727,0,0,0,258.52,231.207Z" transform="translate(-101.498 -86.213)" fill="#fff"/><path d="M305.427,220.824c-.243.14-.431.079-.437-.055,0-.237.146-.067.237-.043a1.448,1.448,0,0,1,.2.1Z" transform="translate(-119.744 -86.635)" fill="#fff"/><path d="M381.8,131c-.194,4-.176,8-.158,12,0,.3-.121.607.158.881a1.743,1.743,0,0,0-.292,1.136c-.249-.462-.377-.7-.128-.99s.1-.5.1-.747v-7.027c0-1.609.1-3.225.146-4.859A.48.48,0,0,1,381.8,131Z" transform="translate(-149.687 -51.437)" fill="#fff"/><path d="M385.374,102.6c-.03.267.079.559-.158.783C385.253,103.122,385.113,102.843,385.374,102.6Z" transform="translate(-151.243 -40.285)" fill="#fff"/><path d="M396.722,63a.947.947,0,0,1-.3.607C396.115,63.255,396.419,63.134,396.722,63Z" transform="translate(-155.594 -24.737)" fill="#fff"/><path d="M396.21,64.3a.887.887,0,0,1-.3.607C395.706,64.573,395.973,64.44,396.21,64.3Z" transform="translate(-155.415 -25.247)" fill="#fff"/><path d="M162.661,116.4c-.049.358.121.753-.152,1.087C162.564,117.123,162.364,116.728,162.661,116.4Z" transform="translate(-63.794 -45.704)" fill="#fff"/><path d="M162.9,114.61c-.043.31.1.656-.152.935C162.81,115.236,162.633,114.883,162.9,114.61Z" transform="translate(-63.893 -45.001)" fill="#fff"/><path d="M265.289,238.1c.65-.358,1.354-.067,2.022-.164a13.64,13.64,0,0,1,.431,3.644c0,1.7.2,3.383.091,5.1a21,21,0,0,1-1.148,6.043,14.018,14.018,0,0,1-3.887,5.952c-2.763,2.387-5.509,2.041-7.628-.929a9.538,9.538,0,0,1-1.482-6.8,54.986,54.986,0,0,1,1.069-7.167,24.152,24.152,0,0,1,1.822-5.393,1.482,1.482,0,0,1,2.035-.164,1,1,0,0,1-.03.534A63.423,63.423,0,0,0,256.421,250a16.337,16.337,0,0,0,.152,4.859,4.944,4.944,0,0,0,.474,1.306,2.621,2.621,0,0,0,4.13,1.117,6.176,6.176,0,0,0,2.035-2.4,18.354,18.354,0,0,0,1.986-7.045,37.822,37.822,0,0,0-.091-8.886.941.941,0,0,1,.182-.856Z" transform="translate(-99.569 -93.406)" fill="#fff"/></g></g></svg>